<?xml version="1.0" encoding="utf-8"?>
<!-- Generator: Adobe Illustrator 24.3.0, SVG Export Plug-In . SVG Version: 6.00 Build 0)  -->
<svg version="1.1" id="Layer_1" xmlns="http://www.w3.org/2000/svg" xmlns:xlink="http://www.w3.org/1999/xlink" x="0px" y="0px"
	 viewBox="0 0 492.27 253.56" style="enable-background:new 0 0 492.27 253.56;" xml:space="preserve">
<style type="text/css">
	.st0{fill:#FFFFFF;}
	.st1{fill-rule:evenodd;clip-rule:evenodd;fill:#FFFFFF;}
</style>
<g>
	<polygon class="st0" points="29.58,-91.77 44.25,-98.92 44.25,-121.79 29.58,-130.26 	"/>
	<polygon class="st0" points="4.67,-88.75 14.03,-84.18 23.32,-88.71 23.32,-144.64 4.67,-133.88 	"/>
	<polygon class="st0" points="-16.27,-98.96 -1.6,-91.81 -1.6,-130.26 -16.27,-121.79 	"/>
	<path class="st0" d="M477.56-121.26c-0.51-1.35-1.23-2.49-2.19-3.43c-0.95-0.94-2.13-1.67-3.52-2.19
		c-1.39-0.52-2.97-0.78-4.74-0.78h-21.52v30.61h5.31v-8.51h3.92h3.54h8.76c1.77,0,3.35-0.27,4.74-0.82
		c1.39-0.55,2.56-1.31,3.52-2.29c0.95-0.98,1.68-2.16,2.19-3.52c0.51-1.36,0.76-2.87,0.76-4.53
		C478.31-118.39,478.06-119.91,477.56-121.26z M471.51-112.33c-1.05,1.07-2.52,1.6-4.4,1.6h-8.76h-3.54h-3.92v-11.58h16.21
		c1.88,0,3.35,0.52,4.4,1.56c1.05,1.04,1.58,2.44,1.58,4.21C473.09-114.8,472.57-113.4,471.51-112.33z"/>
	<path class="st0" d="M435.53-110.56c0,1.54-0.19,2.86-0.57,3.96c-0.38,1.09-1,1.99-1.85,2.7c-0.86,0.7-2,1.21-3.43,1.54
		c-1.43,0.32-3.2,0.48-5.31,0.48s-3.87-0.16-5.31-0.48c-1.43-0.32-2.58-0.84-3.43-1.54c-0.86-0.7-1.47-1.6-1.85-2.7
		c-0.38-1.1-0.57-2.41-0.57-3.96v-17.1h-5.52v17.1c0,2.36,0.31,4.41,0.93,6.17c0.62,1.75,1.59,3.21,2.91,4.36
		c1.32,1.15,3.02,2.01,5.12,2.57c2.09,0.56,4.61,0.84,7.56,0.84c2.98,0,5.51-0.28,7.6-0.84c2.09-0.56,3.8-1.42,5.12-2.57
		c1.32-1.15,2.29-2.6,2.91-4.36c0.62-1.75,0.93-3.81,0.93-6.17v-17.1h-5.22V-110.56z"/>
	<path class="st0" d="M387.19-123.49c-1.32-1.32-2.89-2.34-4.72-3.07c-1.82-0.73-3.82-1.09-5.98-1.09h-17.73v30.61h17.73
		c2.16,0,4.16-0.4,5.98-1.2c1.82-0.8,3.4-1.89,4.72-3.28c1.32-1.39,2.35-3.04,3.09-4.95c0.74-1.91,1.12-3.97,1.12-6.19
		c0-2.22-0.37-4.25-1.12-6.08C389.54-120.59,388.51-122.17,387.19-123.49z M385.33-108.41c-0.48,1.24-1.14,2.29-2,3.18
		c-0.86,0.88-1.87,1.58-3.03,2.08c-1.16,0.51-2.44,0.76-3.81,0.76h-12.42v-19.92h12.42c1.38,0,2.65,0.25,3.81,0.74
		c1.16,0.49,2.18,1.17,3.03,2.04c0.86,0.87,1.52,1.92,2,3.14c0.48,1.22,0.72,2.55,0.72,3.98
		C386.05-110.98,385.81-109.65,385.33-108.41z"/>
	<path class="st0" d="M348.49-105.51l-21.6-21.43c-0.39-0.39-0.77-0.67-1.14-0.84c-0.36-0.17-0.74-0.25-1.14-0.25
		c-0.84,0-1.51,0.29-2,0.86c-0.49,0.58-0.74,1.35-0.74,2.34v27.79h5.1v-22.4l21.52,21.64c0.76,0.76,1.57,1.14,2.44,1.14
		c0.79,0,1.42-0.28,1.92-0.84c0.49-0.56,0.74-1.35,0.74-2.36v-28.05h-5.1V-105.51z"/>
	<path class="st0" d="M300-127.62c-0.41-0.31-0.91-0.46-1.5-0.46s-1.09,0.15-1.52,0.46c-0.42,0.31-0.79,0.73-1.09,1.26l-17.6,29.31
		h6.11l4.56-7.71h4.24h2.53h11.96l4.59,7.71h6.44l-17.64-29.31C300.76-126.89,300.41-127.31,300-127.62z M295.72-109.09h-4.21
		l6.77-11.45l6.82,11.45H295.72z"/>
	<rect x="108.71" y="-127.66" class="st0" width="5.35" height="30.61"/>
	<path class="st0" d="M94.48-128.04c-1.21,0-2.06,0.6-2.57,1.81l-9.43,21.64l-9.43-21.64c-0.25-0.59-0.62-1.04-1.12-1.35
		c-0.49-0.31-1.02-0.46-1.58-0.46c-1.4,0-2.29,0.73-2.65,2.19l-7.87,28.8h5.26l5.85-21.52l8.63,19.92c0.56,1.35,1.47,2.02,2.74,2.02
		c0.65,0,1.19-0.18,1.62-0.53c0.44-0.35,0.81-0.85,1.12-1.5l8.67-19.92l5.85,21.52h5.31l-7.83-28.8
		C96.63-127.31,95.77-128.04,94.48-128.04z"/>
	<path class="st0" d="M222.71-123.49c-1.32-1.32-2.9-2.34-4.74-3.07c-1.84-0.73-3.87-1.09-6.08-1.09h-7.45
		c-2.13,0-4.11,0.36-5.92,1.07c-1.81,0.72-3.38,1.73-4.72,3.03c-1.33,1.31-2.37,2.88-3.12,4.74c-0.74,1.85-1.12,3.9-1.12,6.15
		c0,2.22,0.37,4.28,1.12,6.19c0.74,1.91,1.78,3.56,3.12,4.95c1.33,1.39,2.91,2.48,4.72,3.28c1.81,0.8,3.78,1.2,5.92,1.2h7.45
		c2.19,0,4.2-0.4,6.02-1.2c1.83-0.8,3.4-1.89,4.74-3.28c1.33-1.39,2.37-3.04,3.12-4.95c0.74-1.91,1.12-3.97,1.12-6.19
		c0-2.22-0.37-4.25-1.09-6.08C225.05-120.59,224.02-122.17,222.71-123.49z M220.81-108.41c-0.48,1.24-1.14,2.29-2,3.18
		c-0.86,0.88-1.87,1.58-3.05,2.08c-1.18,0.51-2.47,0.76-3.87,0.76h-7.45c-1.38,0-2.65-0.25-3.81-0.76c-1.17-0.51-2.17-1.2-3.01-2.08
		c-0.84-0.88-1.5-1.94-1.98-3.18c-0.48-1.24-0.72-2.57-0.72-4c0-1.46,0.24-2.79,0.72-4c0.48-1.21,1.14-2.25,1.98-3.12
		c0.84-0.87,1.85-1.55,3.01-2.04c1.17-0.49,2.44-0.74,3.81-0.74h7.45c1.4,0,2.7,0.25,3.87,0.74c1.18,0.49,2.2,1.17,3.05,2.04
		c0.86,0.87,1.52,1.92,2,3.14c0.48,1.22,0.72,2.55,0.72,3.98C221.53-110.98,221.29-109.65,220.81-108.41z"/>
	<polygon class="st0" points="125.01,-127.66 119.66,-127.66 119.66,-97.04 145.6,-97.04 145.6,-102.39 125.01,-102.39 	"/>
	<path class="st0" d="M257.7-105.51l-21.6-21.43c-0.39-0.39-0.77-0.67-1.14-0.84c-0.37-0.17-0.74-0.25-1.14-0.25
		c-0.84,0-1.51,0.29-2,0.86c-0.49,0.58-0.74,1.35-0.74,2.34v27.79h5.1v-22.4L257.7-97.8c0.76,0.76,1.57,1.14,2.44,1.14
		c0.79,0,1.43-0.28,1.92-0.84c0.49-0.56,0.74-1.35,0.74-2.36v-28.05h-5.1V-105.51z"/>
	<rect x="179.5" y="-127.66" class="st0" width="5.35" height="30.61"/>
	<polygon class="st0" points="154.78,-127.66 149.43,-127.66 149.43,-97.04 175.37,-97.04 175.37,-102.39 154.78,-102.39 	"/>
</g>
<g>
	<path class="st1" d="M279.56,61.96v83.8l31.94-15.58V80.4L279.56,61.96L279.56,61.96z M265.92,30.64v121.77l-20.21,9.86
		l-20.39-9.94V54.09L265.92,30.64L265.92,30.64z M211.68,61.96v83.72l-31.94-15.58V80.4L211.68,61.96L211.68,61.96z"/>
	<path class="st0" d="M436.07,208.49h3.62h8.96c1.92,0,3.42-0.55,4.5-1.64c1.08-1.09,1.61-2.53,1.61-4.31
		c0-1.81-0.54-3.24-1.61-4.31c-1.08-1.06-2.58-1.59-4.5-1.59h-16.58v11.84H436.07L436.07,208.49z M432.07,213.79v8.7h-5.43v-31.3h22
		c1.81,0,3.42,0.27,4.84,0.8c1.42,0.53,2.62,1.28,3.6,2.24c0.98,0.96,1.72,2.13,2.24,3.51c0.52,1.38,0.78,2.93,0.78,4.65
		c0,1.69-0.26,3.24-0.78,4.63c-0.52,1.39-1.26,2.59-2.24,3.6c-0.98,1-2.17,1.79-3.6,2.35c-1.42,0.56-3.04,0.84-4.84,0.84h-8.96
		h-3.62H432.07L432.07,213.79z"/>
	<path class="st0" d="M416.35,191.18h5.34v17.48c0,2.41-0.32,4.51-0.95,6.31c-0.63,1.79-1.62,3.28-2.97,4.46
		c-1.35,1.18-3.09,2.05-5.23,2.63c-2.14,0.57-4.73,0.86-7.77,0.86c-3.01,0-5.59-0.29-7.73-0.86c-2.14-0.57-3.88-1.45-5.23-2.63
		c-1.35-1.18-2.34-2.66-2.97-4.46c-0.63-1.79-0.95-3.9-0.95-6.31v-17.48h5.64v17.48c0,1.58,0.19,2.93,0.58,4.05
		c0.39,1.12,1.02,2.04,1.89,2.76c0.88,0.72,2.05,1.24,3.51,1.57c1.46,0.33,3.27,0.49,5.43,0.49s3.96-0.16,5.43-0.49
		c1.46-0.33,2.63-0.85,3.51-1.57c0.88-0.72,1.51-1.64,1.89-2.76c0.39-1.12,0.58-2.47,0.58-4.05V191.18L416.35,191.18z"/>
	<path class="st0" d="M355.98,217.02c1.41,0,2.71-0.26,3.9-0.77c1.19-0.52,2.22-1.23,3.1-2.13c0.88-0.9,1.56-1.99,2.05-3.25
		c0.49-1.26,0.73-2.63,0.73-4.09c0-1.46-0.24-2.82-0.73-4.07c-0.49-1.25-1.17-2.32-2.05-3.21c-0.88-0.89-1.91-1.59-3.1-2.09
		c-1.19-0.5-2.49-0.75-3.9-0.75h-12.7v20.37H355.98L355.98,217.02z M337.85,222.49v-31.3h18.13c2.21,0,4.25,0.37,6.11,1.12
		c1.87,0.75,3.47,1.79,4.82,3.14c1.35,1.35,2.4,2.96,3.16,4.84c0.76,1.88,1.14,3.95,1.14,6.22c0,2.27-0.38,4.38-1.14,6.33
		c-0.76,1.95-1.82,3.64-3.16,5.06c-1.35,1.42-2.96,2.54-4.82,3.36c-1.87,0.82-3.9,1.23-6.11,1.23H337.85L337.85,222.49z"/>
	<path class="st0" d="M305.34,199.58v22.91h-5.21v-28.42c0-1,0.25-1.8,0.75-2.39c0.5-0.59,1.18-0.88,2.05-0.88
		c0.4,0,0.79,0.09,1.16,0.26c0.37,0.17,0.76,0.46,1.16,0.86l22.09,21.92v-22.91h5.21v28.68c0,1.03-0.25,1.84-0.75,2.41
		c-0.5,0.57-1.15,0.86-1.96,0.86c-0.89,0-1.72-0.39-2.5-1.16L305.34,199.58L305.34,199.58z"/>
	<path class="st0" d="M290.32,222.49l-4.69-7.88h-12.23h-2.58h-4.34l-4.66,7.88h-6.24l18-29.97c0.32-0.55,0.69-0.98,1.12-1.29
		c0.43-0.32,0.95-0.47,1.55-0.47c0.6,0,1.11,0.16,1.53,0.47c0.42,0.32,0.78,0.75,1.1,1.29l18.04,29.97H290.32L290.32,222.49z
		 M273.39,210.17h9.6l-6.98-11.71l-6.93,11.71H273.39L273.39,210.17z"/>
	<path class="st0" d="M212.51,199.58v22.91h-5.21v-28.42c0-1,0.25-1.8,0.75-2.39c0.5-0.59,1.18-0.88,2.05-0.88
		c0.4,0,0.79,0.09,1.16,0.26c0.37,0.17,0.76,0.46,1.16,0.86l22.09,21.92v-22.91h5.21v28.68c0,1.03-0.25,1.84-0.75,2.41
		c-0.5,0.57-1.15,0.86-1.96,0.86c-0.89,0-1.72-0.39-2.5-1.16L212.51,199.58L212.51,199.58z M187.66,217.02
		c1.44,0,2.76-0.26,3.96-0.77c1.21-0.52,2.25-1.23,3.12-2.13c0.88-0.9,1.56-1.99,2.05-3.25c0.49-1.26,0.73-2.63,0.73-4.09
		c0-1.46-0.24-2.82-0.73-4.07c-0.49-1.25-1.17-2.32-2.05-3.21c-0.88-0.89-1.92-1.59-3.12-2.09c-1.21-0.5-2.53-0.75-3.96-0.75h-7.62
		c-1.41,0-2.71,0.25-3.9,0.75c-1.19,0.5-2.22,1.2-3.08,2.09c-0.86,0.89-1.54,1.95-2.02,3.19c-0.49,1.23-0.73,2.6-0.73,4.09
		c0,1.46,0.24,2.83,0.73,4.09c0.49,1.26,1.16,2.35,2.02,3.25c0.86,0.9,1.89,1.61,3.08,2.13c1.19,0.52,2.49,0.77,3.9,0.77H187.66
		L187.66,217.02z M180.04,222.49c-2.18,0-4.2-0.41-6.05-1.23c-1.85-0.82-3.46-1.94-4.82-3.36c-1.36-1.42-2.43-3.11-3.19-5.06
		c-0.76-1.95-1.14-4.06-1.14-6.33c0-2.3,0.38-4.39,1.14-6.29c0.76-1.89,1.82-3.51,3.19-4.84c1.36-1.34,2.97-2.37,4.82-3.1
		c1.85-0.73,3.87-1.1,6.05-1.1h7.62c2.27,0,4.34,0.37,6.22,1.12c1.88,0.75,3.5,1.79,4.84,3.14c1.35,1.35,2.4,2.96,3.14,4.84
		c0.75,1.88,1.12,3.95,1.12,6.22c0,2.27-0.38,4.38-1.14,6.33c-0.76,1.95-1.82,3.64-3.19,5.06c-1.36,1.42-2.98,2.54-4.84,3.36
		c-1.87,0.82-3.92,1.23-6.16,1.23H180.04L180.04,222.49z M154.55,222.49v-31.3h5.47v31.3H154.55L154.55,222.49z M123.8,222.49v-31.3
		h5.47v25.84h21.06v5.47H123.8L123.8,222.49z M93.36,222.49v-31.3h5.47v25.84h21.06v5.47H93.36L93.36,222.49z M82.16,222.49v-31.3
		h5.47v31.3H82.16L82.16,222.49z M72.82,222.49l-5.99-22l-8.87,20.37c-0.32,0.66-0.7,1.17-1.14,1.53c-0.44,0.36-1,0.54-1.66,0.54
		c-1.29,0-2.23-0.69-2.8-2.07l-8.83-20.37l-5.99,22h-5.38l8.05-29.45c0.37-1.49,1.28-2.24,2.71-2.24c0.57,0,1.11,0.16,1.61,0.47
		c0.5,0.32,0.88,0.78,1.14,1.38l9.65,22.13l9.65-22.13c0.52-1.23,1.39-1.85,2.63-1.85c1.32,0,2.2,0.75,2.63,2.24l8.01,29.45H72.82
		L72.82,222.49z"/>
</g>
</svg>
