<?xml version="1.0" encoding="utf-8"?>
<!-- Generator: Adobe Illustrator 24.3.0, SVG Export Plug-In . SVG Version: 6.00 Build 0)  -->
<svg version="1.1" id="Layer_1" xmlns="http://www.w3.org/2000/svg" xmlns:xlink="http://www.w3.org/1999/xlink" x="0px" y="0px"
	 viewBox="0 0 565.09 110.9" style="enable-background:new 0 0 565.09 110.9;" xml:space="preserve">
<style type="text/css">
	.st0{fill:#FFFFFF;}
</style>
<g>
	<polygon class="st0" points="81.1,78.1 95.77,70.94 95.77,48.07 81.1,39.6 	"/>
	<polygon class="st0" points="56.19,81.11 65.55,85.68 74.84,81.15 74.84,25.22 56.19,35.99 	"/>
	<polygon class="st0" points="35.25,70.9 49.92,78.06 49.92,39.6 35.25,48.07 	"/>
	<path class="st0" d="M529.08,48.6c-0.51-1.35-1.23-2.49-2.19-3.43c-0.95-0.94-2.13-1.67-3.52-2.19c-1.39-0.52-2.97-0.78-4.74-0.78
		h-21.52v30.61h5.31v-8.51h3.92h3.54h8.76c1.77,0,3.35-0.27,4.74-0.82c1.39-0.55,2.56-1.31,3.52-2.29c0.95-0.98,1.68-2.16,2.19-3.52
		c0.51-1.36,0.76-2.87,0.76-4.53C529.84,51.47,529.58,49.95,529.08,48.6z M523.03,57.53c-1.05,1.07-2.52,1.6-4.4,1.6h-8.76h-3.54
		h-3.92V47.55h16.21c1.88,0,3.35,0.52,4.4,1.56c1.05,1.04,1.58,2.44,1.58,4.21C524.61,55.06,524.09,56.47,523.03,57.53z"/>
	<path class="st0" d="M487.05,59.3c0,1.54-0.19,2.86-0.57,3.96c-0.38,1.09-1,1.99-1.85,2.7c-0.86,0.7-2,1.21-3.43,1.54
		c-1.43,0.32-3.2,0.48-5.31,0.48s-3.87-0.16-5.31-0.48c-1.43-0.32-2.58-0.84-3.43-1.54c-0.86-0.7-1.47-1.6-1.85-2.7
		c-0.38-1.1-0.57-2.41-0.57-3.96V42.2h-5.52v17.1c0,2.36,0.31,4.41,0.93,6.17c0.62,1.75,1.59,3.21,2.91,4.36
		c1.32,1.15,3.02,2.01,5.12,2.57c2.09,0.56,4.61,0.84,7.56,0.84c2.98,0,5.51-0.28,7.6-0.84c2.09-0.56,3.8-1.42,5.12-2.57
		c1.32-1.15,2.29-2.6,2.91-4.36c0.62-1.75,0.93-3.81,0.93-6.17V42.2h-5.22V59.3z"/>
	<path class="st0" d="M438.71,46.37c-1.32-1.32-2.89-2.34-4.72-3.07c-1.82-0.73-3.82-1.09-5.98-1.09h-17.73v30.61h17.73
		c2.16,0,4.16-0.4,5.98-1.2c1.82-0.8,3.4-1.89,4.72-3.28c1.32-1.39,2.35-3.04,3.09-4.95c0.74-1.91,1.12-3.97,1.12-6.19
		c0-2.22-0.37-4.25-1.12-6.08C441.06,49.27,440.03,47.69,438.71,46.37z M436.86,61.45c-0.48,1.24-1.14,2.29-2,3.18
		c-0.86,0.88-1.87,1.58-3.03,2.08c-1.16,0.51-2.44,0.76-3.81,0.76h-12.42V47.55h12.42c1.38,0,2.65,0.25,3.81,0.74
		c1.16,0.49,2.18,1.17,3.03,2.04c0.86,0.87,1.52,1.92,2,3.14c0.48,1.22,0.72,2.55,0.72,3.98C437.57,58.88,437.33,60.21,436.86,61.45
		z"/>
	<path class="st0" d="M400.01,64.35l-21.6-21.43c-0.39-0.39-0.77-0.67-1.14-0.84c-0.36-0.17-0.74-0.25-1.14-0.25
		c-0.84,0-1.51,0.29-2,0.86c-0.49,0.58-0.74,1.35-0.74,2.34v27.79h5.1v-22.4l21.52,21.64c0.76,0.76,1.57,1.14,2.44,1.14
		c0.79,0,1.42-0.28,1.92-0.84c0.49-0.56,0.74-1.35,0.74-2.36V41.95h-5.1V64.35z"/>
	<path class="st0" d="M351.52,42.25c-0.41-0.31-0.91-0.46-1.5-0.46s-1.09,0.15-1.52,0.46c-0.42,0.31-0.79,0.73-1.09,1.26
		l-17.6,29.31h6.11l4.56-7.71h4.24h2.53h11.96l4.59,7.71h6.44l-17.64-29.31C352.29,42.98,351.93,42.55,351.52,42.25z M347.25,60.77
		h-4.21l6.77-11.45l6.82,11.45H347.25z"/>
	<rect x="160.24" y="42.2" class="st0" width="5.35" height="30.61"/>
	<path class="st0" d="M146,41.82c-1.21,0-2.06,0.6-2.57,1.81L134,65.28l-9.43-21.64c-0.25-0.59-0.62-1.04-1.12-1.35
		c-0.49-0.31-1.02-0.46-1.58-0.46c-1.4,0-2.29,0.73-2.65,2.19l-7.87,28.8h5.26l5.85-21.52l8.63,19.92c0.56,1.35,1.47,2.02,2.74,2.02
		c0.65,0,1.19-0.18,1.62-0.53c0.44-0.35,0.81-0.85,1.12-1.5l8.67-19.92l5.85,21.52h5.31l-7.83-28.8
		C148.15,42.55,147.29,41.82,146,41.82z"/>
	<path class="st0" d="M274.23,46.37c-1.32-1.32-2.9-2.34-4.74-3.07c-1.84-0.73-3.87-1.09-6.08-1.09h-7.45
		c-2.13,0-4.11,0.36-5.92,1.07c-1.81,0.72-3.38,1.73-4.72,3.03c-1.33,1.31-2.37,2.88-3.12,4.74c-0.74,1.85-1.12,3.9-1.12,6.15
		c0,2.22,0.37,4.28,1.12,6.19c0.74,1.91,1.78,3.56,3.12,4.95c1.33,1.39,2.91,2.48,4.72,3.28c1.81,0.8,3.78,1.2,5.92,1.2h7.45
		c2.19,0,4.2-0.4,6.02-1.2c1.83-0.8,3.4-1.89,4.74-3.28c1.33-1.39,2.37-3.04,3.12-4.95c0.74-1.91,1.12-3.97,1.12-6.19
		c0-2.22-0.37-4.25-1.09-6.08C276.57,49.27,275.55,47.69,274.23,46.37z M272.33,61.45c-0.48,1.24-1.14,2.29-2,3.18
		c-0.86,0.88-1.87,1.58-3.05,2.08c-1.18,0.51-2.47,0.76-3.87,0.76h-7.45c-1.38,0-2.65-0.25-3.81-0.76c-1.17-0.51-2.17-1.2-3.01-2.08
		c-0.84-0.88-1.5-1.94-1.98-3.18c-0.48-1.24-0.72-2.57-0.72-4c0-1.46,0.24-2.79,0.72-4c0.48-1.21,1.14-2.25,1.98-3.12
		c0.84-0.87,1.85-1.55,3.01-2.04c1.17-0.49,2.44-0.74,3.81-0.74h7.45c1.4,0,2.7,0.25,3.87,0.74c1.18,0.49,2.2,1.17,3.05,2.04
		c0.86,0.87,1.52,1.92,2,3.14c0.48,1.22,0.72,2.55,0.72,3.98C273.05,58.88,272.81,60.21,272.33,61.45z"/>
	<polygon class="st0" points="176.53,42.2 171.18,42.2 171.18,72.82 197.12,72.82 197.12,67.47 176.53,67.47 	"/>
	<path class="st0" d="M309.22,64.35l-21.6-21.43c-0.39-0.39-0.77-0.67-1.14-0.84c-0.37-0.17-0.74-0.25-1.14-0.25
		c-0.84,0-1.51,0.29-2,0.86c-0.49,0.58-0.74,1.35-0.74,2.34v27.79h5.1v-22.4l21.52,21.64c0.76,0.76,1.57,1.14,2.44,1.14
		c0.79,0,1.43-0.28,1.92-0.84c0.49-0.56,0.74-1.35,0.74-2.36V41.95h-5.1V64.35z"/>
	<rect x="231.02" y="42.2" class="st0" width="5.35" height="30.61"/>
	<polygon class="st0" points="206.3,42.2 200.96,42.2 200.96,72.82 226.9,72.82 226.9,67.47 206.3,67.47 	"/>
</g>
</svg>
